<mxfile host="app.diagrams.net" modified="2024-01-22T17:41:15.815Z" agent="Mozilla/5.0 (Windows NT 10.0; Win64; x64) AppleWebKit/537.36 (KHTML, like Gecko) Chrome/120.0.0.0 Safari/537.36" etag="MOf8SlhlWZpCiOezuPdt" version="22.1.21" type="github">
  <diagram name="Page-1" id="7iKQPMxI6YCVzNWekyDI">
    <mxGraphModel dx="2074" dy="1144" grid="1" gridSize="10" guides="1" tooltips="1" connect="1" arrows="1" fold="1" page="1" pageScale="1" pageWidth="850" pageHeight="1100" background="#ffffff" math="0" shadow="0">
      <root>
        <mxCell id="0" />
        <mxCell id="1" parent="0" />
        <mxCell id="BukiwJzhy6_vVrmL2CgK-54" style="edgeStyle=orthogonalEdgeStyle;rounded=0;orthogonalLoop=1;jettySize=auto;html=1;exitX=0.5;exitY=1;exitDx=0;exitDy=0;entryX=0.5;entryY=0;entryDx=0;entryDy=0;" edge="1" parent="1" source="BukiwJzhy6_vVrmL2CgK-14" target="BukiwJzhy6_vVrmL2CgK-52">
          <mxGeometry relative="1" as="geometry" />
        </mxCell>
        <mxCell id="BukiwJzhy6_vVrmL2CgK-14" value="" style="ellipse;fillColor=strokeColor;html=1;" vertex="1" parent="1">
          <mxGeometry x="310" y="40" width="30" height="30" as="geometry" />
        </mxCell>
        <mxCell id="BukiwJzhy6_vVrmL2CgK-23" value="" style="edgeStyle=orthogonalEdgeStyle;rounded=0;orthogonalLoop=1;jettySize=auto;html=1;" edge="1" parent="1" source="BukiwJzhy6_vVrmL2CgK-18" target="BukiwJzhy6_vVrmL2CgK-22">
          <mxGeometry relative="1" as="geometry" />
        </mxCell>
        <mxCell id="BukiwJzhy6_vVrmL2CgK-18" value="Gathers Employee Performance Data" style="whiteSpace=wrap;html=1;rounded=0;" vertex="1" parent="1">
          <mxGeometry x="265" y="260" width="120" height="60" as="geometry" />
        </mxCell>
        <mxCell id="BukiwJzhy6_vVrmL2CgK-29" value="" style="edgeStyle=orthogonalEdgeStyle;rounded=0;orthogonalLoop=1;jettySize=auto;html=1;" edge="1" parent="1" source="BukiwJzhy6_vVrmL2CgK-22" target="BukiwJzhy6_vVrmL2CgK-28">
          <mxGeometry relative="1" as="geometry" />
        </mxCell>
        <mxCell id="BukiwJzhy6_vVrmL2CgK-22" value="Collect Employee Metrics" style="whiteSpace=wrap;html=1;rounded=0;" vertex="1" parent="1">
          <mxGeometry x="265" y="400" width="120" height="60" as="geometry" />
        </mxCell>
        <mxCell id="BukiwJzhy6_vVrmL2CgK-31" value="" style="edgeStyle=orthogonalEdgeStyle;rounded=0;orthogonalLoop=1;jettySize=auto;html=1;" edge="1" parent="1" source="BukiwJzhy6_vVrmL2CgK-28" target="BukiwJzhy6_vVrmL2CgK-30">
          <mxGeometry relative="1" as="geometry" />
        </mxCell>
        <mxCell id="BukiwJzhy6_vVrmL2CgK-28" value="&lt;div&gt;Assess Individual and Team Achievements&lt;/div&gt;&lt;div&gt;&lt;br&gt;&lt;/div&gt;" style="whiteSpace=wrap;html=1;rounded=0;" vertex="1" parent="1">
          <mxGeometry x="265" y="540" width="120" height="60" as="geometry" />
        </mxCell>
        <mxCell id="BukiwJzhy6_vVrmL2CgK-33" value="" style="edgeStyle=orthogonalEdgeStyle;rounded=0;orthogonalLoop=1;jettySize=auto;html=1;" edge="1" parent="1" source="BukiwJzhy6_vVrmL2CgK-30" target="BukiwJzhy6_vVrmL2CgK-32">
          <mxGeometry relative="1" as="geometry" />
        </mxCell>
        <mxCell id="BukiwJzhy6_vVrmL2CgK-30" value="Evaluate Employee Behavior and Competencies" style="whiteSpace=wrap;html=1;rounded=0;" vertex="1" parent="1">
          <mxGeometry x="265" y="680" width="120" height="60" as="geometry" />
        </mxCell>
        <mxCell id="BukiwJzhy6_vVrmL2CgK-35" value="" style="edgeStyle=orthogonalEdgeStyle;rounded=0;orthogonalLoop=1;jettySize=auto;html=1;" edge="1" parent="1" source="BukiwJzhy6_vVrmL2CgK-32" target="BukiwJzhy6_vVrmL2CgK-34">
          <mxGeometry relative="1" as="geometry" />
        </mxCell>
        <mxCell id="BukiwJzhy6_vVrmL2CgK-32" value="Update Performance Records" style="whiteSpace=wrap;html=1;rounded=0;" vertex="1" parent="1">
          <mxGeometry x="265" y="820" width="120" height="60" as="geometry" />
        </mxCell>
        <mxCell id="BukiwJzhy6_vVrmL2CgK-57" style="edgeStyle=orthogonalEdgeStyle;rounded=0;orthogonalLoop=1;jettySize=auto;html=1;exitX=0.5;exitY=1;exitDx=0;exitDy=0;entryX=0.5;entryY=0;entryDx=0;entryDy=0;" edge="1" parent="1" source="BukiwJzhy6_vVrmL2CgK-34" target="BukiwJzhy6_vVrmL2CgK-56">
          <mxGeometry relative="1" as="geometry" />
        </mxCell>
        <mxCell id="BukiwJzhy6_vVrmL2CgK-34" value="Adjust Individual Performance Scores" style="whiteSpace=wrap;html=1;rounded=0;" vertex="1" parent="1">
          <mxGeometry x="265" y="960" width="120" height="60" as="geometry" />
        </mxCell>
        <mxCell id="BukiwJzhy6_vVrmL2CgK-39" value="" style="edgeStyle=orthogonalEdgeStyle;rounded=0;orthogonalLoop=1;jettySize=auto;html=1;" edge="1" parent="1" source="BukiwJzhy6_vVrmL2CgK-36" target="BukiwJzhy6_vVrmL2CgK-38">
          <mxGeometry relative="1" as="geometry" />
        </mxCell>
        <mxCell id="BukiwJzhy6_vVrmL2CgK-36" value="Conduct Performance Review Meetings" style="whiteSpace=wrap;html=1;rounded=0;" vertex="1" parent="1">
          <mxGeometry x="265" y="1230" width="120" height="60" as="geometry" />
        </mxCell>
        <mxCell id="BukiwJzhy6_vVrmL2CgK-41" value="" style="edgeStyle=orthogonalEdgeStyle;rounded=0;orthogonalLoop=1;jettySize=auto;html=1;" edge="1" parent="1" source="BukiwJzhy6_vVrmL2CgK-38" target="BukiwJzhy6_vVrmL2CgK-40">
          <mxGeometry relative="1" as="geometry" />
        </mxCell>
        <mxCell id="BukiwJzhy6_vVrmL2CgK-38" value="Schedule and Conduct Meetings" style="whiteSpace=wrap;html=1;rounded=0;" vertex="1" parent="1">
          <mxGeometry x="265" y="1370" width="120" height="60" as="geometry" />
        </mxCell>
        <mxCell id="BukiwJzhy6_vVrmL2CgK-43" value="" style="edgeStyle=orthogonalEdgeStyle;rounded=0;orthogonalLoop=1;jettySize=auto;html=1;" edge="1" parent="1" source="BukiwJzhy6_vVrmL2CgK-40" target="BukiwJzhy6_vVrmL2CgK-42">
          <mxGeometry relative="1" as="geometry" />
        </mxCell>
        <mxCell id="BukiwJzhy6_vVrmL2CgK-40" value="Provide Feedback to Employees" style="whiteSpace=wrap;html=1;rounded=0;" vertex="1" parent="1">
          <mxGeometry x="265" y="1510" width="120" height="60" as="geometry" />
        </mxCell>
        <mxCell id="BukiwJzhy6_vVrmL2CgK-45" value="" style="edgeStyle=orthogonalEdgeStyle;rounded=0;orthogonalLoop=1;jettySize=auto;html=1;" edge="1" parent="1" source="BukiwJzhy6_vVrmL2CgK-42" target="BukiwJzhy6_vVrmL2CgK-44">
          <mxGeometry relative="1" as="geometry" />
        </mxCell>
        <mxCell id="BukiwJzhy6_vVrmL2CgK-42" value="Set Performance Goals for Next Month" style="whiteSpace=wrap;html=1;rounded=0;" vertex="1" parent="1">
          <mxGeometry x="265" y="1650" width="120" height="60" as="geometry" />
        </mxCell>
        <mxCell id="BukiwJzhy6_vVrmL2CgK-47" value="" style="edgeStyle=orthogonalEdgeStyle;rounded=0;orthogonalLoop=1;jettySize=auto;html=1;" edge="1" parent="1" source="BukiwJzhy6_vVrmL2CgK-44" target="BukiwJzhy6_vVrmL2CgK-46">
          <mxGeometry relative="1" as="geometry" />
        </mxCell>
        <mxCell id="BukiwJzhy6_vVrmL2CgK-44" value="Collaborate with Employees to Set Goals" style="whiteSpace=wrap;html=1;rounded=0;" vertex="1" parent="1">
          <mxGeometry x="265" y="1790" width="120" height="60" as="geometry" />
        </mxCell>
        <mxCell id="BukiwJzhy6_vVrmL2CgK-49" style="edgeStyle=orthogonalEdgeStyle;rounded=0;orthogonalLoop=1;jettySize=auto;html=1;exitX=0.5;exitY=1;exitDx=0;exitDy=0;" edge="1" parent="1" source="BukiwJzhy6_vVrmL2CgK-46" target="BukiwJzhy6_vVrmL2CgK-48">
          <mxGeometry relative="1" as="geometry" />
        </mxCell>
        <mxCell id="BukiwJzhy6_vVrmL2CgK-46" value="Align Goals with Organizational Objectives" style="whiteSpace=wrap;html=1;rounded=0;" vertex="1" parent="1">
          <mxGeometry x="265" y="1930" width="120" height="60" as="geometry" />
        </mxCell>
        <mxCell id="BukiwJzhy6_vVrmL2CgK-51" style="edgeStyle=orthogonalEdgeStyle;rounded=0;orthogonalLoop=1;jettySize=auto;html=1;exitX=0.5;exitY=1;exitDx=0;exitDy=0;" edge="1" parent="1" source="BukiwJzhy6_vVrmL2CgK-48" target="BukiwJzhy6_vVrmL2CgK-50">
          <mxGeometry relative="1" as="geometry" />
        </mxCell>
        <mxCell id="BukiwJzhy6_vVrmL2CgK-48" value="Monthly Performance Management Completed" style="ellipse;whiteSpace=wrap;html=1;" vertex="1" parent="1">
          <mxGeometry x="247.5" y="2050" width="155" height="80" as="geometry" />
        </mxCell>
        <mxCell id="BukiwJzhy6_vVrmL2CgK-50" value="" style="ellipse;html=1;shape=endState;fillColor=strokeColor;" vertex="1" parent="1">
          <mxGeometry x="310" y="2200" width="30" height="30" as="geometry" />
        </mxCell>
        <mxCell id="BukiwJzhy6_vVrmL2CgK-53" style="edgeStyle=orthogonalEdgeStyle;rounded=0;orthogonalLoop=1;jettySize=auto;html=1;exitX=0.5;exitY=1;exitDx=0;exitDy=0;" edge="1" parent="1" source="BukiwJzhy6_vVrmL2CgK-52" target="BukiwJzhy6_vVrmL2CgK-18">
          <mxGeometry relative="1" as="geometry" />
        </mxCell>
        <mxCell id="BukiwJzhy6_vVrmL2CgK-52" value="Monthly Performance Evaluation" style="ellipse;whiteSpace=wrap;html=1;" vertex="1" parent="1">
          <mxGeometry x="251.25" y="110" width="147.5" height="80" as="geometry" />
        </mxCell>
        <mxCell id="BukiwJzhy6_vVrmL2CgK-58" style="edgeStyle=orthogonalEdgeStyle;rounded=0;orthogonalLoop=1;jettySize=auto;html=1;exitX=0.5;exitY=1;exitDx=0;exitDy=0;" edge="1" parent="1" source="BukiwJzhy6_vVrmL2CgK-56" target="BukiwJzhy6_vVrmL2CgK-36">
          <mxGeometry relative="1" as="geometry" />
        </mxCell>
        <mxCell id="BukiwJzhy6_vVrmL2CgK-60" style="edgeStyle=orthogonalEdgeStyle;rounded=0;orthogonalLoop=1;jettySize=auto;html=1;exitX=1;exitY=0.5;exitDx=0;exitDy=0;entryX=1;entryY=0.5;entryDx=0;entryDy=0;" edge="1" parent="1" source="BukiwJzhy6_vVrmL2CgK-56" target="BukiwJzhy6_vVrmL2CgK-42">
          <mxGeometry relative="1" as="geometry">
            <Array as="points">
              <mxPoint x="510" y="1115" />
              <mxPoint x="510" y="1680" />
            </Array>
          </mxGeometry>
        </mxCell>
        <mxCell id="BukiwJzhy6_vVrmL2CgK-56" value="Score below set threshold ?" style="rhombus;whiteSpace=wrap;html=1;" vertex="1" parent="1">
          <mxGeometry x="270" y="1060" width="110" height="110" as="geometry" />
        </mxCell>
        <mxCell id="BukiwJzhy6_vVrmL2CgK-59" value="Yes" style="text;html=1;align=center;verticalAlign=middle;resizable=0;points=[];autosize=1;strokeColor=none;fillColor=none;" vertex="1" parent="1">
          <mxGeometry x="320" y="1178" width="40" height="30" as="geometry" />
        </mxCell>
        <mxCell id="BukiwJzhy6_vVrmL2CgK-61" value="No" style="text;html=1;align=center;verticalAlign=middle;resizable=0;points=[];autosize=1;strokeColor=none;fillColor=none;" vertex="1" parent="1">
          <mxGeometry x="400" y="1088" width="40" height="30" as="geometry" />
        </mxCell>
      </root>
    </mxGraphModel>
  </diagram>
</mxfile>
